<?xml version="1.0" standalone="no"?>
<!DOCTYPE svg PUBLIC "-//W3C//DTD SVG 20010904//EN"
 "http://www.w3.org/TR/2001/REC-SVG-20010904/DTD/svg10.dtd">
<svg version="1.0" xmlns="http://www.w3.org/2000/svg"
 width="939.000000pt" height="939.000000pt" viewBox="0 0 939.000000 939.000000"
 preserveAspectRatio="xMidYMid meet">
<metadata>
Created by potrace 1.11, written by Peter Selinger 2001-2013
</metadata>
<g transform="translate(0.000000,939.000000) scale(0.100000,-0.100000)"
fill="#000000" stroke="none">
<path d="M4540 8854 c-215 -40 -290 -63 -434 -137 -174 -89 -328 -218 -441
-369 -28 -37 -401 -658 -830 -1380 -428 -722 -1188 -2001 -1688 -2843 -1059
-1781 -1003 -1686 -1050 -1795 -87 -203 -119 -480 -82 -700 90 -542 495 -957
1040 -1067 86 -17 250 -18 3640 -18 3376 0 3554 1 3635 18 270 57 494 173 672
350 115 113 177 200 253 352 91 182 125 316 132 521 8 234 -31 422 -127 615
-35 68 -1090 1849 -3186 5376 -164 277 -321 533 -348 570 -110 146 -270 282
-432 365 -201 104 -336 138 -564 143 -91 2 -176 2 -190 -1z"/>
</g>
</svg>
