<?xml version="1.0" encoding="UTF-8"?>
<svg width="14px" height="14px" viewBox="0 0 14 14" version="1.1" xmlns="http://www.w3.org/2000/svg" xmlns:xlink="http://www.w3.org/1999/xlink">
    <!-- Generator: sketchtool 53.2 (72643) - https://sketchapp.com -->
    <title>86DA5948-FDBD-4D8C-8A63-B3F1A7B87719</title>
    <desc>Created with sketchtool.</desc>
    <g id="Desktop" stroke="none" stroke-width="1" fill="none" fill-rule="evenodd" opacity="0.3226609">
        <g id="Home" transform="translate(-973.000000, -1664.000000)" fill="#FF325A" fill-rule="nonzero">
            <path d="M984.656854,1667.12132 L981.12132,1670.65685 C980.730796,1671.04738 980.097631,1671.04738 979.707107,1670.65685 C979.316582,1670.26633 979.316582,1669.63316 979.707107,1669.24264 L982.949747,1666 L981.656854,1666 C981.104569,1666 980.656854,1665.55228 980.656854,1665 C980.656854,1664.44772 981.104569,1664 981.656854,1664 L985.656854,1664 C986.209139,1664 986.656854,1664.44772 986.656854,1665 L986.656854,1669 C986.656854,1669.55228 986.209139,1670 985.656854,1670 C985.104569,1670 984.656854,1669.55228 984.656854,1669 L984.656854,1667.12132 Z M983,1672 C983,1671.44772 983.447715,1671 984,1671 C984.552285,1671 985,1671.44772 985,1672 L985,1674.5 C985,1676.433 983.432997,1678 981.5,1678 L976.5,1678 C974.567003,1678 973,1676.433 973,1674.5 L973,1669.5 C973,1667.567 974.567003,1666 976.5,1666 L979,1666 C979.552285,1666 980,1666.44772 980,1667 C980,1667.55228 979.552285,1668 979,1668 L976.5,1668 C975.671573,1668 975,1668.67157 975,1669.5 L975,1674.5 C975,1675.32843 975.671573,1676 976.5,1676 L981.5,1676 C982.328427,1676 983,1675.32843 983,1674.5 L983,1672 Z" id="icon_new-window"></path>
        </g>
    </g>
</svg>